<svg id="Layer_1" data-name="Layer 1" xmlns="http://www.w3.org/2000/svg" xmlns:xlink="http://www.w3.org/1999/xlink" viewBox="0 0 50 50"><defs><style>.cls-1{fill:#fff;}.cls-2{clip-path:url(#clip-path);}.cls-3{clip-path:url(#clip-path-2);}</style><clipPath id="clip-path"><polygon class="cls-1" points="44.8 21.38 47.54 23.8 1.74 23.8 1.74 24.63 47.54 24.63 44.8 27.04 45.4 27.66 49.3 24.21 45.4 20.77 44.8 21.38"/></clipPath><clipPath id="clip-path-2"><rect class="cls-1" x="1.72" y="20.77" width="47.59" height="6.89"/></clipPath></defs><title>Artboard 1</title><polygon class="cls-1" points="44.8 21.38 47.54 23.8 1.74 23.8 1.74 24.63 47.54 24.63 44.8 27.04 45.4 27.66 49.3 24.21 45.4 20.77 44.8 21.38"/><polygon class="cls-1" points="44.8 21.38 47.54 23.8 1.74 23.8 1.74 24.63 47.54 24.63 44.8 27.04 45.4 27.66 49.3 24.21 45.4 20.77 44.8 21.38"/><g class="cls-2"><rect class="cls-1" x="1.72" y="20.77" width="47.59" height="6.89"/><rect class="cls-1" x="1.72" y="20.77" width="47.59" height="6.89"/><g class="cls-3"><rect class="cls-1" x="-1.39" y="17.64" width="53.83" height="13.15"/></g></g></svg>