<svg id="Layer_1" data-name="Layer 1" xmlns="http://www.w3.org/2000/svg" viewBox="0 0 50 50"><defs><style>.cls-1{fill:#222829;}</style></defs><title>Artboard 6</title><rect class="cls-1" x="22.93" y="36.17" width="1.88" height="1.25"/><path class="cls-1" d="M25.43,44.31H24.18V36.8a.63.63,0,0,1,.62-.63h3.76A3.13,3.13,0,0,0,31.69,33V27.4a.63.63,0,0,1,.63-.62h2.5v-.53L33,20.72l1.18-.4L36,26a.79.79,0,0,1,0,.2V27.4a.63.63,0,0,1-.63.63H32.94v5a4.38,4.38,0,0,1-4.38,4.38H25.43Z"/><path class="cls-1" d="M11.66,44.31H10.4V36.8c0-2.89-1.12-5.59-2.31-8.45C6.76,25.18,5.39,21.9,5.39,18A13.78,13.78,0,0,1,32.6,14.92l-1.22.28A12.53,12.53,0,0,0,6.65,18c0,3.64,1.32,6.8,2.59,9.86s2.42,5.79,2.42,8.93Z"/><path class="cls-1" d="M33.57,18.64H16.67V17.39h16.9A5.3,5.3,0,0,0,37.71,16a4.45,4.45,0,0,0,.87-3.49A6.77,6.77,0,0,0,36.86,9a11.48,11.48,0,0,0-8.3-3.55,12.56,12.56,0,0,0-4.47.82l-.45-1.17a13.74,13.74,0,0,1,4.92-.9,12.68,12.68,0,0,1,9.2,3.93,8.12,8.12,0,0,1,2.07,4.13,5.7,5.7,0,0,1-1.18,4.48A6.46,6.46,0,0,1,33.57,18.64Z"/><path class="cls-1" d="M18.73,21.59,15.6,18.46a.62.62,0,0,1,0-.89l3.13-3.13.88.88L16.92,18l2.69,2.69Z"/><path class="cls-1" d="M34.82,44.31H33.57V36.8a.63.63,0,0,1,.63-.63H38A3.13,3.13,0,0,0,41.08,33V27.4a.63.63,0,0,1,.63-.62h2.51v-.51l-3.09-8,1.17-.45,3.13,8.14a.85.85,0,0,1,0,.22V27.4a.63.63,0,0,1-.63.63h-2.5v5A4.39,4.39,0,0,1,38,37.42H34.82Z"/><path class="cls-1" d="M18.54,27.4a9.39,9.39,0,1,1,8.78-12.74l-1.17.44a8.14,8.14,0,1,0,0,5.82l1.17.45A9.45,9.45,0,0,1,18.54,27.4Z"/></svg>