<svg id="Layer_1" data-name="Layer 1" xmlns="http://www.w3.org/2000/svg" viewBox="0 0 50 50"><defs><style>.cls-1{fill:#222829;}</style></defs><title>Artboard 3</title><path class="cls-1" d="M5.65,39.83a.69.69,0,0,1-.24,0A.63.63,0,0,1,5,39.2V35.45A.64.64,0,0,1,5.21,35L22.74,17.47a.62.62,0,0,1,.44-.18h3.5l5.45-5.45a.62.62,0,0,1,.89,0l7.51,7.51a.64.64,0,0,1,0,.89L34.27,26.5a.67.67,0,0,1-.44.18H28.45l-6.7,6.7a.64.64,0,0,1-.45.19H12.17L6.09,39.65A.62.62,0,0,1,5.65,39.83Zm.63-4.12v2l5.19-5.19a.6.6,0,0,1,.44-.18H21l6.71-6.71a.6.6,0,0,1,.44-.18h5.38l5.63-5.64-6.63-6.63-5.19,5.2a.67.67,0,0,1-.44.18h-3.5Z"/><path class="cls-1" d="M13.79,41.08a.62.62,0,0,1-.44-.18L9,36.52l.89-.89,3.94,3.94L19,34.38l.89.88L14.23,40.9A.62.62,0,0,1,13.79,41.08Z"/><path class="cls-1" d="M21.3,37.32a.62.62,0,0,1-.44-.18L17.1,33.38,18,32.5l3.31,3.31,10.2-10.2.89.89L21.75,37.14A.66.66,0,0,1,21.3,37.32Z"/><path class="cls-1" d="M23.62,18.36l-.88-.89,5.63-5.63a.64.64,0,0,1,.45-.19h3.75v1.26H29.08Z"/><rect class="cls-1" x="12.85" y="33.29" width="1.25" height="6.2" transform="translate(-21.78 20.19) rotate(-45)"/><path class="cls-1" d="M35.52,29l-.88-.88,1.43-1.44-1.43-1.44.88-.88,1.88,1.88a.63.63,0,0,1,0,.88Z"/><rect class="cls-1" x="26.94" y="30.44" width="4.38" height="1.25"/><path class="cls-1" d="M44,39l-3.76-3.76a.59.59,0,0,1-.18-.44V27.31a.63.63,0,0,1,.18-.45L44,23.11l.88.88-3.57,3.58v7l3.57,3.57Z"/><path class="cls-1" d="M38.65,14l-.88-.88,2.32-2.32V5.39h1.25V11a.67.67,0,0,1-.18.44Z"/><rect class="cls-1" x="17.11" y="21.36" width="11.51" height="1.25" transform="translate(-8.85 22.61) rotate(-45)"/><path class="cls-1" d="M38.65,18.36l-.88-.89L39.2,16l-3.5-3.5L34.27,14l-.89-.88,1.88-1.88a.64.64,0,0,1,.89,0l4.38,4.38a.64.64,0,0,1,0,.89Z"/><path class="cls-1" d="M33.83,34.19A3.13,3.13,0,1,1,37,31.06,3.13,3.13,0,0,1,33.83,34.19Zm0-5a1.88,1.88,0,1,0,1.87,1.88A1.88,1.88,0,0,0,33.83,29.18Z"/><rect class="cls-1" x="36.33" y="29.18" width="4.38" height="1.25"/><rect class="cls-1" x="36.33" y="31.69" width="4.38" height="1.25"/></svg>