<svg id="Layer_1" data-name="Layer 1" xmlns="http://www.w3.org/2000/svg" viewBox="0 0 50 50"><defs><style>.cls-1{fill:#222829;}</style></defs><title>Artboard 5</title><rect class="cls-1" x="5.43" y="34.92" width="40.07" height="1.25"/><path class="cls-1" d="M45.5,33.67c-6,0-8.88-6.68-11.67-13.14-2.37-5.48-4.61-10.66-8.37-10.66s-6,5.18-8.36,10.66C14.3,27,11.42,33.67,5.43,33.67V32.41c5.16,0,7.89-6.29,10.52-12.38,2.53-5.87,4.93-11.41,9.51-11.41S32.44,14.16,35,20c2.63,6.09,5.35,12.38,10.52,12.38Z"/><rect class="cls-1" x="16.7" y="18.64" width="1.25" height="16.91"/><rect class="cls-1" x="24.84" y="9.25" width="1.25" height="26.3"/><rect class="cls-1" x="14.19" y="24.27" width="1.25" height="11.27"/><rect class="cls-1" x="11.69" y="28.66" width="1.25" height="6.89"/><rect class="cls-1" x="9.18" y="31.79" width="1.25" height="3.76"/><rect class="cls-1" x="6.68" y="33.04" width="1.25" height="2.5"/><rect class="cls-1" x="32.98" y="18.64" width="1.25" height="16.91"/><rect class="cls-1" x="35.48" y="24.27" width="1.25" height="11.27"/><rect class="cls-1" x="37.98" y="28.66" width="1.25" height="6.89"/><rect class="cls-1" x="40.49" y="31.79" width="1.25" height="3.76"/><rect class="cls-1" x="42.99" y="33.04" width="1.25" height="2.5"/><rect class="cls-1" x="10.43" y="18.01" width="6.89" height="1.25"/><rect class="cls-1" x="7.93" y="18.01" width="1.25" height="1.25"/><rect class="cls-1" x="5.43" y="18.01" width="1.25" height="1.25"/><rect class="cls-1" x="25.46" y="8.62" width="15.03" height="1.25"/><rect class="cls-1" x="41.74" y="8.62" width="1.25" height="1.25"/><rect class="cls-1" x="44.25" y="8.62" width="1.25" height="1.25"/><rect class="cls-1" x="6.05" y="37.42" width="1.25" height="1.25"/><rect class="cls-1" x="8.56" y="37.42" width="1.25" height="1.25"/><rect class="cls-1" x="11.06" y="37.42" width="1.25" height="1.25"/><rect class="cls-1" x="13.56" y="37.42" width="1.25" height="1.25"/><rect class="cls-1" x="16.07" y="37.42" width="1.25" height="1.25"/><rect class="cls-1" x="18.57" y="37.42" width="1.25" height="1.25"/><rect class="cls-1" x="21.08" y="37.42" width="1.25" height="1.25"/><rect class="cls-1" x="23.58" y="37.42" width="1.25" height="1.25"/><rect class="cls-1" x="26.09" y="37.42" width="1.25" height="1.25"/><rect class="cls-1" x="28.59" y="37.42" width="1.25" height="1.25"/><rect class="cls-1" x="31.1" y="37.42" width="1.25" height="1.25"/><rect class="cls-1" x="33.6" y="37.42" width="1.25" height="1.25"/><rect class="cls-1" x="11.06" y="39.93" width="1.25" height="1.25"/><rect class="cls-1" x="13.56" y="39.93" width="1.25" height="1.25"/><rect class="cls-1" x="16.07" y="39.93" width="1.25" height="1.25"/><rect class="cls-1" x="18.57" y="39.93" width="1.25" height="1.25"/><rect class="cls-1" x="21.08" y="39.93" width="1.25" height="1.25"/><rect class="cls-1" x="23.58" y="39.93" width="1.25" height="1.25"/><rect class="cls-1" x="26.09" y="39.93" width="1.25" height="1.25"/><rect class="cls-1" x="28.59" y="39.93" width="1.25" height="1.25"/><rect class="cls-1" x="31.1" y="39.93" width="1.25" height="1.25"/><rect class="cls-1" x="33.6" y="39.93" width="1.25" height="1.25"/><rect class="cls-1" x="16.07" y="42.43" width="1.25" height="1.25"/><rect class="cls-1" x="18.57" y="42.43" width="1.25" height="1.25"/><rect class="cls-1" x="21.08" y="42.43" width="1.25" height="1.25"/><rect class="cls-1" x="23.58" y="42.43" width="1.25" height="1.25"/><rect class="cls-1" x="26.09" y="42.43" width="1.25" height="1.25"/><rect class="cls-1" x="28.59" y="42.43" width="1.25" height="1.25"/><rect class="cls-1" x="31.1" y="42.43" width="1.25" height="1.25"/><rect class="cls-1" x="33.6" y="42.43" width="1.25" height="1.25"/><rect class="cls-1" x="21.08" y="44.94" width="1.25" height="1.25"/><rect class="cls-1" x="23.58" y="44.94" width="1.25" height="1.25"/><rect class="cls-1" x="26.09" y="44.94" width="1.25" height="1.25"/><rect class="cls-1" x="28.59" y="44.94" width="1.25" height="1.25"/><rect class="cls-1" x="36.11" y="37.42" width="1.25" height="1.25"/><rect class="cls-1" x="38.61" y="37.42" width="1.25" height="1.25"/><rect class="cls-1" x="41.12" y="37.42" width="1.25" height="1.25"/><rect class="cls-1" x="43.62" y="37.42" width="1.25" height="1.25"/><rect class="cls-1" x="36.11" y="39.93" width="1.25" height="1.25"/><rect class="cls-1" x="38.61" y="39.93" width="1.25" height="1.25"/></svg>