<svg id="Layer_1" data-name="Layer 1" xmlns="http://www.w3.org/2000/svg" viewBox="0 0 50 50"><defs><style>.cls-1{fill:#fff;}</style></defs><title>count-logo</title><path class="cls-1" d="M24.84,34.16a8.67,8.67,0,0,1-8.72-8.8,8.69,8.69,0,1,1,17.38,0A8.64,8.64,0,0,1,24.84,34.16Zm0-16.37a7.37,7.37,0,0,0-7.51,7.57,7.48,7.48,0,1,0,15,0A7.43,7.43,0,0,0,24.84,17.79Z"/><path class="cls-1" d="M24.74,22.63a1.23,1.23,0,1,1-1.22,1.23,1.2,1.2,0,0,1,1.22-1.23m0-1.21a2.44,2.44,0,1,0,2.41,2.44,2.41,2.41,0,0,0-2.41-2.44Z"/><rect class="cls-1" x="22.51" y="27.5" width="4.45" height="1.21"/></svg>