<?xml version="1.0" encoding="utf-8"?>
<!-- Generator: Adobe Illustrator 22.0.1, SVG Export Plug-In . SVG Version: 6.00 Build 0)  -->
<svg version="1.1" id="Layer_1" xmlns="http://www.w3.org/2000/svg" xmlns:xlink="http://www.w3.org/1999/xlink" x="0px" y="0px"
	 viewBox="0 0 90.5 34" style="enable-background:new 0 0 90.5 34;" xml:space="preserve">
<g>
	<g>
		<g>
			<path d="M17,29c-6.7,0-12-5.3-12-12.1c0-6.8,5.3-12.1,12-12.1c6.7,0,11.9,5.3,11.9,12.1C28.9,23.7,23.7,29,17,29z M17,6.5
				c-5.9,0-10.3,4.5-10.3,10.4c0,6,4.4,10.5,10.3,10.5c5.7,0,10.3-4.6,10.3-10.5C27.2,11,22.7,6.5,17,6.5z"/>
		</g>
	</g>
	<g>
		<g>
			<g>
				<path d="M16.9,13.1c0.9,0,1.7,0.7,1.7,1.7c0,0.9-0.7,1.7-1.7,1.7c-0.9,0-1.7-0.7-1.7-1.7C15.2,13.9,15.9,13.1,16.9,13.1
					 M16.9,11.5c-1.9,0-3.3,1.5-3.3,3.3c0,1.9,1.5,3.4,3.3,3.4c1.9,0,3.3-1.5,3.3-3.4C20.2,12.9,18.7,11.5,16.9,11.5L16.9,11.5z"/>
			</g>
		</g>
		<g>
			<g>
				<rect x="13.8" y="19.8" width="6.1" height="1.7"/>
			</g>
		</g>
	</g>
</g>
<g>
	<path d="M43.2,11.7c-2.6,0-4.6,2-4.6,4.6c0,2.6,2,4.6,4.6,4.6c1.6,0,3-0.8,3.8-2.1l1.1,0.7c-1,1.6-2.9,2.7-4.9,2.7
		c-3.3,0-5.9-2.6-5.9-5.9c0-3.3,2.6-5.9,5.9-5.9c2.1,0,3.9,1.1,4.9,2.7L47,13.7C46.2,12.5,44.8,11.7,43.2,11.7z"/>
	<path d="M49.2,17.8c0-2.4,1.9-4.3,4.3-4.3c2.4,0,4.3,1.9,4.3,4.3c0,2.4-1.9,4.3-4.3,4.3C51.1,22.1,49.2,20.2,49.2,17.8z M56.5,17.8
		c0-1.7-1.4-3.1-3-3.1c-1.7,0-3.1,1.4-3.1,3.1c0,1.8,1.4,3.1,3.1,3.1C55.1,20.9,56.5,19.5,56.5,17.8z"/>
	<path d="M66.7,13.6v8.3h-1.2v-1.4c-0.5,0.9-1.5,1.6-2.7,1.6c-1.8,0-3.2-1.4-3.2-3.6v-4.9h1.2v4.7c0,1.6,1,2.6,2.3,2.6
		c1.5,0,2.4-1.3,2.4-2.7v-4.6H66.7z"/>
	<path d="M76.6,17v4.9h-1.2v-4.7c0-1.6-1-2.6-2.3-2.6c-1.5,0-2.4,1.3-2.4,2.7v4.6h-1.2v-8.3h1.2V15c0.5-0.9,1.5-1.6,2.7-1.6
		C75.1,13.5,76.6,14.9,76.6,17z"/>
	<path d="M80.8,14.8v4.7c0,0.9,0.4,1.3,1.2,1.3h1v1.2h-1c-1.5,0-2.4-0.8-2.4-2.4v-4.7H78v-1.1h1.6v-2.3l1.2-0.4v2.6H83v1.1H80.8z"/>
</g>
</svg>
