<svg id="Layer_1" data-name="Layer 1" xmlns="http://www.w3.org/2000/svg" viewBox="0 0 50 50"><defs><style>.cls-1{fill:#222829;}</style></defs><title>Artboard 4</title><path class="cls-1" d="M25.49,43.44a.61.61,0,0,1-.34-.1L5.74,30.82a.62.62,0,0,1-.28-.53.6.6,0,0,1,.28-.52L25.15,17.24a.64.64,0,0,1,.68,0L45.24,29.77a.61.61,0,0,1,.29.52.63.63,0,0,1-.29.53L25.83,43.34A.59.59,0,0,1,25.49,43.44ZM7.24,30.29,25.49,42.07,43.75,30.29,25.49,18.51Z"/><path class="cls-1" d="M25.49,37.81a.7.7,0,0,1-.34-.1L5.74,25.18a.6.6,0,0,1-.28-.52.62.62,0,0,1,.28-.53L25.15,11.61a.64.64,0,0,1,.68,0L45.24,24.13a.63.63,0,0,1,.29.53.61.61,0,0,1-.29.52L25.83,37.71A.67.67,0,0,1,25.49,37.81ZM7.24,24.66,25.49,36.43,43.75,24.66,25.49,12.88Z"/><path class="cls-1" d="M25.49,32.17a.61.61,0,0,1-.34-.1L5.74,19.55A.63.63,0,0,1,5.46,19a.6.6,0,0,1,.28-.52L25.15,6a.64.64,0,0,1,.68,0L45.24,18.5a.61.61,0,0,1,.29.52.64.64,0,0,1-.29.53L25.83,32.07A.59.59,0,0,1,25.49,32.17ZM7.24,19,25.49,30.8,43.75,19,25.49,7.24Z"/><rect class="cls-1" x="24.87" y="22.78" width="1.25" height="1.25"/><rect class="cls-1" x="24.87" y="20.27" width="1.25" height="1.25"/><rect class="cls-1" x="24.87" y="25.28" width="1.25" height="1.25"/><rect class="cls-1" x="27.37" y="22.78" width="1.25" height="1.25"/><rect class="cls-1" x="29.87" y="24.03" width="1.25" height="1.25"/><rect class="cls-1" x="19.86" y="24.03" width="1.25" height="1.25"/><rect class="cls-1" x="27.37" y="25.28" width="1.25" height="1.25"/><rect class="cls-1" x="22.36" y="22.78" width="1.25" height="1.25"/><rect class="cls-1" x="22.36" y="25.28" width="1.25" height="1.25"/><rect class="cls-1" x="24.87" y="27.79" width="1.25" height="1.25"/></svg>