<svg id="Layer_1" data-name="Layer 1" xmlns="http://www.w3.org/2000/svg" viewBox="0 0 50 50"><defs><style>.cls-1{fill:#222829;}</style></defs><title>Artboard 7</title><path class="cls-1" d="M25.57,12.26A3.76,3.76,0,1,1,29.33,8.5,3.76,3.76,0,0,1,25.57,12.26Zm0-6.26a2.51,2.51,0,1,0,2.51,2.5A2.5,2.5,0,0,0,25.57,6Z"/><path class="cls-1" d="M37.47,16.64a3.76,3.76,0,1,1,3.75-3.75A3.76,3.76,0,0,1,37.47,16.64Zm0-6.26A2.51,2.51,0,1,0,40,12.89,2.52,2.52,0,0,0,37.47,10.38Z"/><path class="cls-1" d="M41.85,28.54a3.76,3.76,0,1,1,3.76-3.76A3.76,3.76,0,0,1,41.85,28.54Zm0-6.26a2.51,2.51,0,1,0,2.51,2.5A2.5,2.5,0,0,0,41.85,22.28Z"/><path class="cls-1" d="M37.47,40.44a3.76,3.76,0,1,1,3.75-3.76A3.77,3.77,0,0,1,37.47,40.44Zm0-6.26a2.51,2.51,0,1,0,2.5,2.5A2.51,2.51,0,0,0,37.47,34.18Z"/><path class="cls-1" d="M13.67,16.64a3.76,3.76,0,1,1,3.76-3.75A3.75,3.75,0,0,1,13.67,16.64Zm0-6.26a2.51,2.51,0,1,0,2.51,2.51A2.51,2.51,0,0,0,13.67,10.38Z"/><path class="cls-1" d="M9.29,28.54a3.76,3.76,0,1,1,3.76-3.76A3.76,3.76,0,0,1,9.29,28.54Zm0-6.26a2.51,2.51,0,1,0,2.51,2.5A2.5,2.5,0,0,0,9.29,22.28Z"/><path class="cls-1" d="M13.67,40.44a3.76,3.76,0,1,1,3.76-3.76A3.76,3.76,0,0,1,13.67,40.44Zm0-6.26a2.51,2.51,0,1,0,2.51,2.5A2.5,2.5,0,0,0,13.67,34.18Z"/><path class="cls-1" d="M25.57,44.82a3.76,3.76,0,1,1,3.76-3.76A3.76,3.76,0,0,1,25.57,44.82Zm0-6.26a2.51,2.51,0,1,0,2.51,2.5A2.5,2.5,0,0,0,25.57,38.56Z"/><path class="cls-1" d="M25.57,41.69a.64.64,0,0,1-.58-.38L21.87,33.9l-8,3.36a.63.63,0,0,1-.69-.14.62.62,0,0,1-.13-.68l3.35-7.95-7.4-3.13a.63.63,0,0,1,0-1.15l7.4-3.13L13.1,13.13a.63.63,0,0,1,.82-.82l8,3.36L25,8.26a.63.63,0,0,1,1.16,0l3.12,7.41,8-3.36a.63.63,0,0,1,.82.82l-3.35,7.95,7.4,3.13a.62.62,0,0,1,0,1.15l-7.4,3.13,3.35,8a.62.62,0,0,1-.13.68.63.63,0,0,1-.69.14L29.27,33.9l-3.12,7.41A.64.64,0,0,1,25.57,41.69ZM23,33.41l2.55,6,2.55-6-2.55-1.07Zm6.74-.66,6.53,2.75L33.53,29,30.88,30.1ZM17.61,29,14.85,35.5l6.53-2.75L20.26,30.1Zm9.57,2.68,1.43.6.62-1.47Zm-5.27-.87.62,1.47,1.43-.6Zm-.69-1.65L25.57,31l4.36-1.84,1.84-4.36-1.84-4.35-4.36-1.84-4.35,1.84-1.84,4.35Zm11.22-2.75-.86,2.05,1.47-.62ZM18.09,27.82l1.47.62-.86-2.05Zm15-3,1.08,2.55,6-2.55-6-2.55Zm-22.22,0,6,2.55L18,24.78l-1.08-2.55Zm20.68-3.65.86,2,.61-1.42Zm-13.49.62.61,1.42.86-2Zm12.79-2.28,2.65,1.12,2.76-6.53-6.53,2.76Zm-16-5.41,2.76,6.53,2.65-1.12,1.12-2.65Zm12.33,3.85,2.05.87-.62-1.47Zm-4.65-.6-.62,1.47L24,17.91ZM23,16.15l2.55,1.08,2.55-1.08-2.55-6Z"/><rect class="cls-1" x="23.69" y="21.65" width="1.25" height="1.25"/><rect class="cls-1" x="26.2" y="21.65" width="1.25" height="1.25"/><rect class="cls-1" x="27.45" y="24.16" width="1.25" height="1.25"/><rect class="cls-1" x="24.94" y="24.16" width="1.25" height="1.25"/><rect class="cls-1" x="22.44" y="24.16" width="1.25" height="1.25"/><rect class="cls-1" x="26.2" y="26.66" width="1.25" height="1.25"/><rect class="cls-1" x="23.69" y="26.66" width="1.25" height="1.25"/></svg>